<svg xmlns="http://www.w3.org/2000/svg" width="1600" height="900" viewBox="0 0 1600 900" role="img"><defs><style><![CDATA[.sans{font-family:Inter, ui-sans-serif, system-ui, -apple-system, BlinkMacSystemFont, 'Segoe UI', sans-serif;}.mono{font-family:'IBM Plex Mono', 'SFMono-Regular', Consolas, monospace;}]]></style></defs>
<title>Morpheus hero flow</title>
<rect width="1600" height="900" fill="#05090D"/>
<text x="80" y="72" class="mono" font-size="18" letter-spacing="0.22em" fill="#A9B1BB">A CONTROLLED WORKFLOW FOR AI OPERATORS</text>
<text x="800" y="128" text-anchor="middle" class="sans" font-size="64" font-weight="430" fill="#F4F7FA">From dream to evidence</text>
<text x="800" y="178" text-anchor="middle" class="mono" font-size="18" letter-spacing="0.28em" fill="#A9B1BB">UNDER HUMAN MERGE AUTHORITY</text>
<line x1="210" y1="225" x2="1390" y2="225" stroke="#242A31"/>
<circle cx="350.2" cy="426.5" r="1.00" fill="#FFFFFF" opacity="0.57"/><circle cx="363.6" cy="407.3" r="1.76" fill="#FFFFFF" opacity="0.21"/><circle cx="271.9" cy="431.7" r="1.15" fill="#FFFFFF" opacity="0.17"/><circle cx="191.6" cy="410.8" r="1.12" fill="#FFFFFF" opacity="0.47"/><circle cx="199.4" cy="325.3" r="0.59" fill="#FFFFFF" opacity="0.61"/><circle cx="371.3" cy="379.6" r="1.16" fill="#FFFFFF" opacity="0.25"/><circle cx="464.6" cy="401.4" r="1.01" fill="#FFFFFF" opacity="0.63"/><circle cx="337.3" cy="415.4" r="1.60" fill="#FFFFFF" opacity="0.57"/><circle cx="313.0" cy="436.7" r="1.28" fill="#FFFFFF" opacity="0.62"/><circle cx="342.7" cy="399.2" r="1.67" fill="#FFFFFF" opacity="0.48"/><circle cx="373.6" cy="421.1" r="1.11" fill="#FFFFFF" opacity="0.20"/><circle cx="203.8" cy="414.3" r="0.68" fill="#FFFFFF" opacity="0.32"/><circle cx="348.8" cy="385.8" r="0.98" fill="#FFFFFF" opacity="0.31"/><circle cx="457.2" cy="412.9" r="1.69" fill="#FFFFFF" opacity="0.50"/><circle cx="181.6" cy="399.8" r="0.87" fill="#FFFFFF" opacity="0.71"/><circle cx="350.4" cy="387.2" r="1.36" fill="#FFFFFF" opacity="0.54"/><circle cx="423.4" cy="406.0" r="0.88" fill="#FFFFFF" opacity="0.34"/><circle cx="216.4" cy="369.5" r="0.79" fill="#FFFFFF" opacity="0.69"/><circle cx="435.5" cy="395.0" r="1.34" fill="#FFFFFF" opacity="0.67"/><circle cx="285.2" cy="455.2" r="0.94" fill="#FFFFFF" opacity="0.30"/><circle cx="322.1" cy="400.5" r="1.66" fill="#FFFFFF" opacity="0.38"/><circle cx="199.0" cy="471.5" r="1.43" fill="#FFFFFF" opacity="0.45"/><circle cx="152.7" cy="430.8" r="1.01" fill="#FFFFFF" opacity="0.60"/><circle cx="272.0" cy="409.6" r="0.73" fill="#FFFFFF" opacity="0.37"/><circle cx="478.6" cy="380.2" r="2.02" fill="#FFFFFF" opacity="0.17"/><circle cx="379.5" cy="392.4" r="1.56" fill="#FFFFFF" opacity="0.46"/><circle cx="216.1" cy="389.1" r="0.98" fill="#FFFFFF" opacity="0.41"/><circle cx="463.4" cy="399.7" r="2.00" fill="#FFFFFF" opacity="0.31"/><circle cx="300.2" cy="438.4" r="1.58" fill="#FFFFFF" opacity="0.33"/><circle cx="350.0" cy="460.5" r="1.42" fill="#FFFFFF" opacity="0.25"/><circle cx="394.5" cy="367.4" r="1.42" fill="#FFFFFF" opacity="0.16"/><circle cx="236.7" cy="384.7" r="0.64" fill="#FFFFFF" opacity="0.68"/><circle cx="436.3" cy="410.5" r="0.92" fill="#FFFFFF" opacity="0.65"/><circle cx="460.9" cy="395.2" r="0.99" fill="#FFFFFF" opacity="0.43"/><circle cx="144.9" cy="410.7" r="0.62" fill="#FFFFFF" opacity="0.43"/><circle cx="317.9" cy="347.5" r="0.99" fill="#FFFFFF" opacity="0.65"/><circle cx="272.3" cy="415.9" r="1.37" fill="#FFFFFF" opacity="0.27"/><circle cx="232.2" cy="459.8" r="1.51" fill="#FFFFFF" opacity="0.52"/><circle cx="277.7" cy="384.2" r="0.89" fill="#FFFFFF" opacity="0.35"/><circle cx="331.8" cy="402.3" r="0.98" fill="#FFFFFF" opacity="0.28"/><circle cx="145.6" cy="375.0" r="1.21" fill="#FFFFFF" opacity="0.64"/><circle cx="145.5" cy="372.7" r="0.70" fill="#FFFFFF" opacity="0.53"/><circle cx="197.1" cy="485.1" r="1.06" fill="#FFFFFF" opacity="0.42"/><circle cx="402.5" cy="439.5" r="1.76" fill="#FFFFFF" opacity="0.27"/><circle cx="154.9" cy="349.0" r="0.89" fill="#FFFFFF" opacity="0.57"/><circle cx="362.4" cy="415.7" r="1.86" fill="#FFFFFF" opacity="0.22"/><circle cx="264.9" cy="360.4" r="0.89" fill="#FFFFFF" opacity="0.27"/><circle cx="281.5" cy="469.2" r="1.09" fill="#FFFFFF" opacity="0.32"/><circle cx="209.9" cy="451.4" r="1.34" fill="#FFFFFF" opacity="0.47"/><circle cx="138.2" cy="373.8" r="1.26" fill="#FFFFFF" opacity="0.63"/><circle cx="468.8" cy="422.4" r="1.10" fill="#FFFFFF" opacity="0.43"/><circle cx="196.9" cy="359.4" r="0.92" fill="#FFFFFF" opacity="0.19"/><circle cx="256.4" cy="437.2" r="1.38" fill="#FFFFFF" opacity="0.41"/><circle cx="272.3" cy="401.1" r="1.59" fill="#FFFFFF" opacity="0.72"/><circle cx="320.1" cy="400.2" r="1.03" fill="#FFFFFF" opacity="0.70"/><circle cx="328.5" cy="386.0" r="1.30" fill="#FFFFFF" opacity="0.58"/><circle cx="140.6" cy="342.9" r="1.16" fill="#FFFFFF" opacity="0.25"/><circle cx="465.9" cy="397.4" r="0.99" fill="#FFFFFF" opacity="0.26"/><circle cx="334.2" cy="393.8" r="0.86" fill="#FFFFFF" opacity="0.66"/><circle cx="208.6" cy="371.6" r="1.11" fill="#FFFFFF" opacity="0.51"/><circle cx="270.9" cy="361.6" r="1.56" fill="#FFFFFF" opacity="0.27"/><circle cx="377.8" cy="389.2" r="1.06" fill="#FFFFFF" opacity="0.38"/><circle cx="361.8" cy="396.8" r="1.60" fill="#FFFFFF" opacity="0.20"/><circle cx="285.0" cy="435.7" r="1.66" fill="#FFFFFF" opacity="0.72"/><circle cx="146.4" cy="414.6" r="1.23" fill="#FFFFFF" opacity="0.65"/><circle cx="436.5" cy="415.8" r="1.31" fill="#FFFFFF" opacity="0.25"/><circle cx="420.1" cy="396.9" r="2.02" fill="#FFFFFF" opacity="0.53"/><circle cx="122.8" cy="321.6" r="1.09" fill="#FFFFFF" opacity="0.33"/><circle cx="358.8" cy="417.5" r="0.89" fill="#FFFFFF" opacity="0.22"/><circle cx="319.2" cy="397.4" r="1.00" fill="#FFFFFF" opacity="0.50"/><circle cx="378.3" cy="413.8" r="1.09" fill="#FFFFFF" opacity="0.43"/><circle cx="445.9" cy="423.0" r="1.91" fill="#FFFFFF" opacity="0.21"/><circle cx="272.5" cy="403.4" r="1.41" fill="#FFFFFF" opacity="0.52"/><circle cx="214.3" cy="408.1" r="1.24" fill="#FFFFFF" opacity="0.47"/><circle cx="274.0" cy="419.7" r="1.52" fill="#FFFFFF" opacity="0.67"/><circle cx="316.4" cy="404.8" r="1.58" fill="#FFFFFF" opacity="0.49"/><circle cx="173.3" cy="436.8" r="1.28" fill="#FFFFFF" opacity="0.61"/><circle cx="429.9" cy="414.1" r="1.94" fill="#FFFFFF" opacity="0.28"/><circle cx="209.8" cy="472.8" r="1.36" fill="#FFFFFF" opacity="0.39"/><circle cx="343.4" cy="434.8" r="0.91" fill="#FFFFFF" opacity="0.68"/><circle cx="431.3" cy="433.2" r="1.92" fill="#FFFFFF" opacity="0.17"/><circle cx="385.2" cy="397.7" r="1.17" fill="#FFFFFF" opacity="0.68"/><circle cx="408.8" cy="427.5" r="1.14" fill="#FFFFFF" opacity="0.60"/><circle cx="158.9" cy="325.4" r="1.22" fill="#FFFFFF" opacity="0.64"/><circle cx="200.1" cy="427.0" r="0.84" fill="#FFFFFF" opacity="0.61"/><circle cx="201.9" cy="352.6" r="0.61" fill="#FFFFFF" opacity="0.27"/><circle cx="238.2" cy="481.7" r="0.88" fill="#FFFFFF" opacity="0.52"/><circle cx="263.9" cy="322.7" r="1.59" fill="#FFFFFF" opacity="0.46"/><circle cx="458.1" cy="428.2" r="1.10" fill="#FFFFFF" opacity="0.70"/><circle cx="215.6" cy="489.5" r="0.70" fill="#FFFFFF" opacity="0.40"/><circle cx="382.3" cy="391.5" r="1.37" fill="#FFFFFF" opacity="0.38"/><circle cx="327.6" cy="444.0" r="1.00" fill="#FFFFFF" opacity="0.56"/><circle cx="120.6" cy="473.8" r="1.01" fill="#FFFFFF" opacity="0.58"/><circle cx="361.4" cy="389.0" r="1.17" fill="#FFFFFF" opacity="0.20"/><circle cx="359.1" cy="392.7" r="1.70" fill="#FFFFFF" opacity="0.56"/><circle cx="228.1" cy="439.5" r="0.89" fill="#FFFFFF" opacity="0.39"/><circle cx="264.9" cy="397.9" r="1.06" fill="#FFFFFF" opacity="0.69"/><circle cx="363.8" cy="417.2" r="1.77" fill="#FFFFFF" opacity="0.50"/><circle cx="228.3" cy="402.7" r="0.87" fill="#FFFFFF" opacity="0.40"/><circle cx="328.8" cy="403.7" r="1.42" fill="#FFFFFF" opacity="0.42"/><circle cx="279.2" cy="414.0" r="1.55" fill="#FFFFFF" opacity="0.61"/><circle cx="181.1" cy="463.3" r="0.63" fill="#FFFFFF" opacity="0.45"/><circle cx="347.9" cy="376.9" r="1.57" fill="#FFFFFF" opacity="0.54"/><circle cx="200.9" cy="484.7" r="0.75" fill="#FFFFFF" opacity="0.17"/><circle cx="208.1" cy="308.4" r="0.66" fill="#FFFFFF" opacity="0.39"/><circle cx="346.7" cy="412.8" r="0.96" fill="#FFFFFF" opacity="0.55"/><circle cx="298.0" cy="406.0" r="0.70" fill="#FFFFFF" opacity="0.58"/><circle cx="397.2" cy="435.1" r="0.93" fill="#FFFFFF" opacity="0.40"/><circle cx="183.3" cy="466.3" r="0.61" fill="#FFFFFF" opacity="0.30"/><circle cx="425.4" cy="398.6" r="1.39" fill="#FFFFFF" opacity="0.61"/><circle cx="360.3" cy="440.0" r="1.82" fill="#FFFFFF" opacity="0.66"/><circle cx="340.6" cy="400.9" r="1.52" fill="#FFFFFF" opacity="0.44"/><circle cx="419.0" cy="367.2" r="1.72" fill="#FFFFFF" opacity="0.43"/><circle cx="213.3" cy="373.1" r="0.81" fill="#FFFFFF" opacity="0.52"/><circle cx="395.7" cy="374.0" r="1.12" fill="#FFFFFF" opacity="0.20"/><circle cx="222.9" cy="395.1" r="0.85" fill="#FFFFFF" opacity="0.34"/><circle cx="314.5" cy="419.8" r="1.43" fill="#FFFFFF" opacity="0.56"/><circle cx="143.1" cy="437.0" r="0.83" fill="#FFFFFF" opacity="0.46"/><circle cx="269.7" cy="415.3" r="1.53" fill="#FFFFFF" opacity="0.49"/><circle cx="370.4" cy="429.5" r="1.74" fill="#FFFFFF" opacity="0.59"/><circle cx="256.9" cy="443.4" r="1.36" fill="#FFFFFF" opacity="0.64"/><circle cx="463.2" cy="404.4" r="1.41" fill="#FFFFFF" opacity="0.58"/><circle cx="316.6" cy="385.2" r="0.94" fill="#FFFFFF" opacity="0.40"/><circle cx="130.4" cy="377.8" r="0.75" fill="#FFFFFF" opacity="0.54"/><circle cx="265.6" cy="427.5" r="0.78" fill="#FFFFFF" opacity="0.51"/><circle cx="129.7" cy="463.4" r="0.79" fill="#FFFFFF" opacity="0.48"/><circle cx="129.8" cy="383.3" r="0.84" fill="#FFFFFF" opacity="0.19"/><circle cx="256.5" cy="386.1" r="0.85" fill="#FFFFFF" opacity="0.34"/><circle cx="394.0" cy="377.6" r="1.77" fill="#FFFFFF" opacity="0.30"/><circle cx="149.5" cy="471.3" r="0.54" fill="#FFFFFF" opacity="0.46"/><circle cx="480.0" cy="396.4" r="1.92" fill="#FFFFFF" opacity="0.52"/><circle cx="391.5" cy="430.0" r="1.90" fill="#FFFFFF" opacity="0.27"/><circle cx="127.3" cy="422.5" r="0.99" fill="#FFFFFF" opacity="0.48"/><circle cx="198.5" cy="425.7" r="1.17" fill="#FFFFFF" opacity="0.59"/><circle cx="180.4" cy="334.1" r="0.66" fill="#FFFFFF" opacity="0.62"/><circle cx="467.3" cy="392.8" r="1.02" fill="#FFFFFF" opacity="0.17"/><circle cx="232.3" cy="352.8" r="0.98" fill="#FFFFFF" opacity="0.56"/><circle cx="147.4" cy="270.9" r="1.05" fill="#FFFFFF" opacity="0.51"/><circle cx="156.7" cy="419.8" r="1.00" fill="#FFFFFF" opacity="0.23"/><circle cx="474.2" cy="385.2" r="1.90" fill="#FFFFFF" opacity="0.35"/><circle cx="274.2" cy="371.5" r="1.00" fill="#FFFFFF" opacity="0.64"/><circle cx="416.0" cy="420.0" r="0.95" fill="#FFFFFF" opacity="0.70"/><circle cx="348.8" cy="425.3" r="1.23" fill="#FFFFFF" opacity="0.57"/><circle cx="467.6" cy="389.2" r="1.23" fill="#FFFFFF" opacity="0.61"/><circle cx="313.7" cy="368.0" r="1.47" fill="#FFFFFF" opacity="0.31"/><circle cx="426.6" cy="405.9" r="1.85" fill="#FFFFFF" opacity="0.21"/><circle cx="437.4" cy="404.7" r="1.60" fill="#FFFFFF" opacity="0.37"/><circle cx="130.3" cy="472.6" r="1.13" fill="#FFFFFF" opacity="0.26"/><circle cx="196.4" cy="417.9" r="1.32" fill="#FFFFFF" opacity="0.55"/><circle cx="219.5" cy="362.2" r="0.62" fill="#FFFFFF" opacity="0.69"/><circle cx="150.8" cy="391.4" r="1.11" fill="#FFFFFF" opacity="0.55"/><circle cx="352.5" cy="372.1" r="1.29" fill="#FFFFFF" opacity="0.60"/><circle cx="153.5" cy="419.8" r="0.77" fill="#FFFFFF" opacity="0.49"/><circle cx="290.4" cy="460.4" r="1.21" fill="#FFFFFF" opacity="0.40"/><circle cx="388.5" cy="386.9" r="1.11" fill="#FFFFFF" opacity="0.30"/><circle cx="163.4" cy="480.8" r="0.70" fill="#FFFFFF" opacity="0.23"/><circle cx="312.9" cy="405.7" r="0.93" fill="#FFFFFF" opacity="0.43"/><circle cx="380.9" cy="388.8" r="1.90" fill="#FFFFFF" opacity="0.45"/><circle cx="221.9" cy="429.3" r="0.81" fill="#FFFFFF" opacity="0.26"/><circle cx="125.1" cy="428.1" r="0.89" fill="#FFFFFF" opacity="0.31"/><circle cx="470.7" cy="389.0" r="1.05" fill="#FFFFFF" opacity="0.65"/><circle cx="296.7" cy="385.5" r="1.57" fill="#FFFFFF" opacity="0.48"/><circle cx="289.0" cy="381.7" r="0.74" fill="#FFFFFF" opacity="0.69"/><circle cx="292.0" cy="412.7" r="1.51" fill="#FFFFFF" opacity="0.38"/><circle cx="146.7" cy="390.6" r="0.64" fill="#FFFFFF" opacity="0.48"/><circle cx="229.4" cy="392.8" r="1.51" fill="#FFFFFF" opacity="0.23"/><circle cx="395.2" cy="374.0" r="1.07" fill="#FFFFFF" opacity="0.45"/><circle cx="282.2" cy="361.7" r="1.11" fill="#FFFFFF" opacity="0.64"/><circle cx="476.4" cy="399.5" r="1.68" fill="#FFFFFF" opacity="0.57"/><circle cx="461.1" cy="419.4" r="1.14" fill="#FFFFFF" opacity="0.28"/><circle cx="357.8" cy="413.3" r="0.85" fill="#FFFFFF" opacity="0.16"/><circle cx="282.2" cy="423.9" r="1.26" fill="#FFFFFF" opacity="0.32"/><circle cx="203.3" cy="383.0" r="0.97" fill="#FFFFFF" opacity="0.54"/><circle cx="452.6" cy="384.5" r="1.86" fill="#FFFFFF" opacity="0.51"/><circle cx="358.0" cy="430.2" r="1.36" fill="#FFFFFF" opacity="0.52"/><circle cx="447.0" cy="398.1" r="1.89" fill="#FFFFFF" opacity="0.20"/><circle cx="179.7" cy="372.2" r="1.02" fill="#FFFFFF" opacity="0.32"/><circle cx="164.8" cy="491.4" r="1.09" fill="#FFFFFF" opacity="0.55"/><circle cx="459.4" cy="390.0" r="0.98" fill="#FFFFFF" opacity="0.18"/><circle cx="275.5" cy="403.9" r="0.98" fill="#FFFFFF" opacity="0.30"/><circle cx="152.9" cy="511.2" r="0.97" fill="#FFFFFF" opacity="0.69"/><circle cx="479.8" cy="400.0" r="1.77" fill="#FFFFFF" opacity="0.31"/><circle cx="134.5" cy="406.7" r="0.99" fill="#FFFFFF" opacity="0.67"/><circle cx="185.3" cy="344.1" r="1.05" fill="#FFFFFF" opacity="0.52"/><circle cx="297.0" cy="432.3" r="1.03" fill="#FFFFFF" opacity="0.54"/><circle cx="428.8" cy="412.3" r="1.24" fill="#FFFFFF" opacity="0.55"/><circle cx="223.8" cy="485.7" r="1.10" fill="#FFFFFF" opacity="0.41"/><circle cx="233.2" cy="375.6" r="0.91" fill="#FFFFFF" opacity="0.70"/><circle cx="265.5" cy="282.1" r="1.28" fill="#FFFFFF" opacity="0.46"/><circle cx="268.8" cy="392.9" r="0.84" fill="#FFFFFF" opacity="0.36"/><circle cx="392.3" cy="377.7" r="1.04" fill="#FFFFFF" opacity="0.47"/><circle cx="454.0" cy="388.7" r="1.42" fill="#FFFFFF" opacity="0.55"/><circle cx="163.7" cy="480.2" r="0.73" fill="#FFFFFF" opacity="0.25"/><circle cx="318.3" cy="396.4" r="1.29" fill="#FFFFFF" opacity="0.21"/><circle cx="477.2" cy="412.8" r="1.05" fill="#FFFFFF" opacity="0.63"/><circle cx="299.4" cy="383.2" r="1.42" fill="#FFFFFF" opacity="0.44"/><circle cx="218.4" cy="472.5" r="0.82" fill="#FFFFFF" opacity="0.47"/><circle cx="258.1" cy="302.1" r="1.52" fill="#FFFFFF" opacity="0.44"/><circle cx="436.6" cy="412.1" r="1.82" fill="#FFFFFF" opacity="0.39"/><circle cx="456.3" cy="396.5" r="1.51" fill="#FFFFFF" opacity="0.62"/><circle cx="221.8" cy="385.0" r="1.49" fill="#FFFFFF" opacity="0.43"/><circle cx="173.5" cy="473.7" r="0.99" fill="#FFFFFF" opacity="0.35"/><circle cx="318.7" cy="368.8" r="1.05" fill="#FFFFFF" opacity="0.27"/><circle cx="371.1" cy="396.5" r="1.42" fill="#FFFFFF" opacity="0.29"/><circle cx="399.2" cy="437.4" r="1.63" fill="#FFFFFF" opacity="0.61"/><circle cx="259.0" cy="422.8" r="1.28" fill="#FFFFFF" opacity="0.62"/><circle cx="473.1" cy="401.3" r="1.54" fill="#FFFFFF" opacity="0.49"/><circle cx="433.1" cy="404.1" r="1.92" fill="#FFFFFF" opacity="0.41"/><circle cx="309.3" cy="350.7" r="1.13" fill="#FFFFFF" opacity="0.53"/><circle cx="175.6" cy="427.4" r="0.94" fill="#FFFFFF" opacity="0.70"/><circle cx="241.9" cy="381.2" r="1.41" fill="#FFFFFF" opacity="0.64"/><circle cx="429.4" cy="381.6" r="1.31" fill="#FFFFFF" opacity="0.34"/><circle cx="378.7" cy="406.9" r="0.83" fill="#FFFFFF" opacity="0.20"/><circle cx="347.2" cy="345.6" r="1.75" fill="#FFFFFF" opacity="0.72"/><circle cx="388.8" cy="394.6" r="1.53" fill="#FFFFFF" opacity="0.65"/><circle cx="279.7" cy="411.2" r="1.35" fill="#FFFFFF" opacity="0.67"/><circle cx="136.6" cy="418.4" r="0.79" fill="#FFFFFF" opacity="0.24"/><circle cx="311.2" cy="376.7" r="1.29" fill="#FFFFFF" opacity="0.60"/><circle cx="181.2" cy="499.7" r="1.07" fill="#FFFFFF" opacity="0.29"/><circle cx="448.6" cy="417.1" r="1.04" fill="#FFFFFF" opacity="0.42"/><circle cx="211.4" cy="403.8" r="1.29" fill="#FFFFFF" opacity="0.66"/><circle cx="363.9" cy="407.6" r="0.95" fill="#FFFFFF" opacity="0.41"/><circle cx="244.4" cy="350.1" r="1.02" fill="#FFFFFF" opacity="0.30"/><circle cx="424.3" cy="391.1" r="1.08" fill="#FFFFFF" opacity="0.38"/><circle cx="294.0" cy="407.9" r="1.26" fill="#FFFFFF" opacity="0.72"/><circle cx="226.3" cy="465.0" r="1.48" fill="#FFFFFF" opacity="0.53"/><circle cx="218.8" cy="337.0" r="1.26" fill="#FFFFFF" opacity="0.19"/><circle cx="338.3" cy="385.5" r="1.27" fill="#FFFFFF" opacity="0.67"/><circle cx="223.0" cy="423.6" r="0.92" fill="#FFFFFF" opacity="0.52"/><circle cx="343.5" cy="365.7" r="1.48" fill="#FFFFFF" opacity="0.56"/><circle cx="357.3" cy="424.3" r="1.76" fill="#FFFFFF" opacity="0.52"/><circle cx="231.2" cy="348.7" r="1.01" fill="#FFFFFF" opacity="0.48"/><circle cx="383.6" cy="420.5" r="1.65" fill="#FFFFFF" opacity="0.26"/><circle cx="167.6" cy="429.0" r="0.98" fill="#FFFFFF" opacity="0.70"/><circle cx="311.1" cy="459.2" r="0.97" fill="#FFFFFF" opacity="0.62"/><circle cx="293.5" cy="368.0" r="1.49" fill="#FFFFFF" opacity="0.58"/><circle cx="241.9" cy="489.9" r="0.76" fill="#FFFFFF" opacity="0.70"/><circle cx="429.7" cy="432.0" r="1.73" fill="#FFFFFF" opacity="0.71"/><circle cx="468.2" cy="407.4" r="1.90" fill="#FFFFFF" opacity="0.17"/><circle cx="313.2" cy="373.5" r="1.18" fill="#FFFFFF" opacity="0.54"/><circle cx="362.0" cy="361.4" r="1.81" fill="#FFFFFF" opacity="0.22"/><circle cx="204.2" cy="356.6" r="0.61" fill="#FFFFFF" opacity="0.66"/><circle cx="322.1" cy="423.9" r="0.79" fill="#FFFFFF" opacity="0.62"/><circle cx="447.4" cy="399.0" r="1.24" fill="#FFFFFF" opacity="0.39"/><circle cx="170.3" cy="448.5" r="0.94" fill="#FFFFFF" opacity="0.21"/><circle cx="439.4" cy="399.8" r="1.02" fill="#FFFFFF" opacity="0.41"/><circle cx="361.4" cy="401.2" r="1.23" fill="#FFFFFF" opacity="0.58"/><circle cx="175.6" cy="272.2" r="0.89" fill="#FFFFFF" opacity="0.22"/><circle cx="296.2" cy="328.7" r="0.73" fill="#FFFFFF" opacity="0.37"/><circle cx="279.6" cy="456.4" r="1.60" fill="#FFFFFF" opacity="0.64"/><circle cx="155.8" cy="375.6" r="1.29" fill="#FFFFFF" opacity="0.36"/><circle cx="263.3" cy="356.2" r="0.84" fill="#FFFFFF" opacity="0.23"/><circle cx="425.3" cy="379.8" r="1.62" fill="#FFFFFF" opacity="0.49"/><circle cx="127.7" cy="429.6" r="1.08" fill="#FFFFFF" opacity="0.30"/><circle cx="165.3" cy="384.5" r="1.15" fill="#FFFFFF" opacity="0.28"/><circle cx="197.7" cy="396.4" r="1.31" fill="#FFFFFF" opacity="0.34"/><circle cx="173.1" cy="407.4" r="1.24" fill="#FFFFFF" opacity="0.24"/><circle cx="166.8" cy="401.5" r="0.75" fill="#FFFFFF" opacity="0.26"/><circle cx="358.0" cy="408.6" r="1.63" fill="#FFFFFF" opacity="0.29"/><circle cx="236.6" cy="405.3" r="0.78" fill="#FFFFFF" opacity="0.19"/>
<path d="M 430 375.2 C 590 375.2, 645 404, 718 404" fill="none" stroke="#E7EDF4" stroke-opacity="0.22" stroke-width="1.4"/><path d="M 862 404 C 960 404, 1035 260, 1320 260" fill="none" stroke="#6AA7FF" stroke-opacity="0.72" stroke-width="1.6"/><circle cx="1320" cy="260" r="3.2" fill="#6AA7FF"/><path d="M 430 381.6 C 590 381.6, 645 404, 718 404" fill="none" stroke="#E7EDF4" stroke-opacity="0.26" stroke-width="1.4"/><path d="M 862 404 C 960 404, 1035 292, 1320 292" fill="none" stroke="#6AA7FF" stroke-opacity="0.72" stroke-width="1.6"/><circle cx="1320" cy="292" r="3.2" fill="#6AA7FF"/><path d="M 430 388.0 C 590 388.0, 645 404, 718 404" fill="none" stroke="#E7EDF4" stroke-opacity="0.30" stroke-width="1.4"/><path d="M 862 404 C 960 404, 1035 324, 1320 324" fill="none" stroke="#6AA7FF" stroke-opacity="0.72" stroke-width="1.6"/><circle cx="1320" cy="324" r="3.2" fill="#6AA7FF"/><path d="M 430 394.4 C 590 394.4, 645 404, 718 404" fill="none" stroke="#E7EDF4" stroke-opacity="0.34" stroke-width="1.4"/><path d="M 862 404 C 960 404, 1035 356, 1320 356" fill="none" stroke="#6AA7FF" stroke-opacity="0.72" stroke-width="1.6"/><circle cx="1320" cy="356" r="3.2" fill="#6AA7FF"/><path d="M 430 400.8 C 590 400.8, 645 404, 718 404" fill="none" stroke="#E7EDF4" stroke-opacity="0.38" stroke-width="1.4"/><path d="M 862 404 C 960 404, 1035 388, 1320 388" fill="none" stroke="#6AA7FF" stroke-opacity="0.72" stroke-width="1.6"/><circle cx="1320" cy="388" r="3.2" fill="#6AA7FF"/><path d="M 430 407.2 C 590 407.2, 645 404, 718 404" fill="none" stroke="#E7EDF4" stroke-opacity="0.42" stroke-width="1.4"/><path d="M 862 404 C 960 404, 1035 420, 1320 420" fill="none" stroke="#6AA7FF" stroke-opacity="0.72" stroke-width="1.6"/><circle cx="1320" cy="420" r="3.2" fill="#6AA7FF"/><path d="M 430 413.6 C 590 413.6, 645 404, 718 404" fill="none" stroke="#E7EDF4" stroke-opacity="0.46" stroke-width="1.4"/><path d="M 862 404 C 960 404, 1035 452, 1320 452" fill="none" stroke="#6AA7FF" stroke-opacity="0.72" stroke-width="1.6"/><circle cx="1320" cy="452" r="3.2" fill="#6AA7FF"/><path d="M 430 420.0 C 590 420.0, 645 404, 718 404" fill="none" stroke="#E7EDF4" stroke-opacity="0.50" stroke-width="1.4"/><path d="M 862 404 C 960 404, 1035 484, 1320 484" fill="none" stroke="#6AA7FF" stroke-opacity="0.72" stroke-width="1.6"/><circle cx="1320" cy="484" r="3.2" fill="#6AA7FF"/><path d="M 430 426.4 C 590 426.4, 645 404, 718 404" fill="none" stroke="#E7EDF4" stroke-opacity="0.54" stroke-width="1.4"/><path d="M 862 404 C 960 404, 1035 516, 1320 516" fill="none" stroke="#6AA7FF" stroke-opacity="0.72" stroke-width="1.6"/><circle cx="1320" cy="516" r="3.2" fill="#6AA7FF"/><path d="M 430 432.8 C 590 432.8, 645 404, 718 404" fill="none" stroke="#E7EDF4" stroke-opacity="0.58" stroke-width="1.4"/><path d="M 862 404 C 960 404, 1035 548, 1320 548" fill="none" stroke="#6AA7FF" stroke-opacity="0.72" stroke-width="1.6"/><circle cx="1320" cy="548" r="3.2" fill="#6AA7FF"/>
<line x1="790" y1="250" x2="790" y2="590" stroke="#D8DEE6" stroke-opacity="0.35"/>
<circle cx="790" cy="250" r="5" fill="none" stroke="#D8DEE6" stroke-opacity="0.8"/>
<circle cx="790" cy="590" r="5" fill="none" stroke="#D8DEE6" stroke-opacity="0.8"/>
<g transform="translate(662 276)"><path d="M24 48 L101 48 C135 76 135 180 101 208 L24 208 Z" fill="#FFFFFF"/><path d="M232 48 L155 48 C121 76 121 180 155 208 L232 208 Z" fill="#FFFFFF"/></g>
<text x="250" y="425" class="mono" font-size="34" letter-spacing="0.25em" fill="#F4F7FA">DREAM</text>
<text x="265" y="462" class="mono" font-size="18" letter-spacing="0.26em" fill="#A9B1BB">INTENT</text>
<text x="1170" y="425" class="mono" font-size="34" letter-spacing="0.25em" fill="#F4F7FA">EVIDENCE</text>
<text x="1180" y="462" class="mono" font-size="18" letter-spacing="0.24em" fill="#A9B1BB">TRANSCRIPTS · LOGS · ARTIFACTS</text>
<text x="790" y="642" text-anchor="middle" class="mono" font-size="25" letter-spacing="0.25em" fill="#F4F7FA">HUMAN MERGE AUTHORITY</text>
<text x="790" y="680" text-anchor="middle" class="mono" font-size="17" letter-spacing="0.22em" fill="#A9B1BB">YOU DECIDE WHAT BECOMES REAL</text>
</svg>