<svg xmlns="http://www.w3.org/2000/svg" width="1200" height="630" viewBox="0 0 1200 630" role="img">
  <defs>
    <style><![CDATA[
      .sans { font-family: Inter, ui-sans-serif, system-ui, -apple-system, BlinkMacSystemFont, 'Segoe UI', sans-serif; }
      .mono { font-family: 'IBM Plex Mono', 'SFMono-Regular', Consolas, monospace; }
      .small { font-size: 18px; letter-spacing: 0.24em; font-weight: 600; }
      .label { font-size: 18px; letter-spacing: 0.16em; font-weight: 600; }
      .body { font-size: 22px; line-height: 1.5; }
      .principle { font-size: 22px; letter-spacing: 0.18em; font-weight: 500; }
    ]]></style>
    
  </defs>
  
  
<title>Morpheus Open Graph image</title>
<rect width="1200" height="630" fill="#05090D"/>
<g transform="translate(78 100) scale(0.85)">
  <path d="M24 48 L101 48 C135 76 135 180 101 208 L24 208 Z" fill="#FFFFFF"/>
  <path d="M232 48 L155 48 C121 76 121 180 155 208 L232 208 Z" fill="#FFFFFF"/>
</g>
<text x="82" y="340" class="sans" font-size="88" font-weight="400" letter-spacing="-0.045em" fill="#F4F7FA">Morpheus</text>
<text x="86" y="410" class="sans" font-size="34" fill="#A9B1BB">Agent ops for operators running AI work on real repositories.</text>
<text x="86" y="482" class="mono" font-size="24" letter-spacing="0.15em" fill="#6AA7FF">DREAM WITH NO LIMITS. RUN WITH EVIDENCE.</text>
<g transform="translate(760 185) scale(0.72)">
  <path d="M24 48 L101 48 C135 76 135 180 101 208 L24 208 Z" fill="none"/>
  <path d="M232 48 L155 48 C121 76 121 180 155 208 L232 208 Z" fill="none"/>
</g>
<path d="M760 277 C850 277 895 230 970 230" stroke="#6AA7FF" stroke-width="2" fill="none" opacity="0.7"/>
<path d="M760 277 C850 277 895 324 970 324" stroke="#6AA7FF" stroke-width="2" fill="none" opacity="0.7"/>
<circle cx="1000" cy="230" r="5" fill="#6AA7FF"/>
<circle cx="1000" cy="324" r="5" fill="#6AA7FF"/>

</svg>