<svg xmlns="http://www.w3.org/2000/svg" width="1920" height="1440" viewBox="0 0 1920 1440" role="img">
<defs><style><![CDATA[
.sans{font-family:Inter, ui-sans-serif, system-ui, -apple-system, BlinkMacSystemFont, 'Segoe UI', sans-serif;} .mono{font-family:'IBM Plex Mono', 'SFMono-Regular', Consolas, monospace;}
]]></style>
<g id="i-target"><circle cx="0" cy="0" r="22" fill="none" stroke="currentColor" stroke-width="2"/><path d="M-34 0H34M0-34V34" stroke="currentColor" stroke-width="2"/><circle cx="0" cy="0" r="4" fill="#6AA7FF"/></g>
<g id="i-db"><ellipse cx="0" cy="-20" rx="24" ry="9" fill="none" stroke="currentColor" stroke-width="2"/><path d="M-24 -20V20C-24 25 -13 30 0 30C13 30 24 25 24 20V-20" fill="none" stroke="currentColor" stroke-width="2"/><path d="M-24 0C-24 5 -13 10 0 10C13 10 24 5 24 0" fill="none" stroke="currentColor" stroke-width="2"/></g>
<g id="i-box"><rect x="-24" y="-24" width="48" height="48" fill="none" stroke="currentColor" stroke-width="2" stroke-dasharray="10 7"/></g>
<g id="i-log"><path d="M-25 -22H25V14H-8L-22 27V14H-25Z" fill="none" stroke="currentColor" stroke-width="2"/><path d="M-12 -8H14M-12 5H8" stroke="currentColor" stroke-width="2"/></g>
<g id="i-doc"><path d="M-18 -28H10L28 -10V28H-18Z" fill="none" stroke="currentColor" stroke-width="2"/><path d="M10 -28V-10H28M-6 4H12M-6 16H16" stroke="currentColor" stroke-width="2"/></g>
<g id="i-lock"><rect x="-24" y="-4" width="48" height="34" rx="3" fill="none" stroke="currentColor" stroke-width="2"/><path d="M-14 -4V-18C-14 -30 14 -30 14 -18V-4" fill="none" stroke="currentColor" stroke-width="2"/></g>
</defs>
<title>Morpheus brand board</title>
<rect width="1920" height="1440" fill="#05090D"/>
<rect x="0" y="0" width="1920" height="96" fill="#05090D"/>
<text x="52" y="56" class="mono" font-size="22" letter-spacing="0.28em" fill="#F4F7FA">MORPHEUS BRAND ASSET 01</text>
<text x="1700" y="45" text-anchor="middle" class="mono" font-size="19" letter-spacing="0.22em" fill="#A9B1BB">AGENT OPS FOR OPERATORS</text>
<text x="1700" y="73" text-anchor="middle" class="mono" font-size="16" letter-spacing="0.18em" fill="#A9B1BB">RUNNING AI WORK ON REAL REPOSITORIES</text>
<line x1="0" y1="96" x2="1920" y2="96" stroke="#242A31"/>
<rect x="0" y="96" width="560" height="1184" fill="#F2F0EA"/>
<text x="54" y="160" class="mono" font-size="23" letter-spacing="0.22em" fill="#0B1016">MORPHEUS</text>
<text x="54" y="192" class="mono" font-size="18" letter-spacing="0.18em" fill="#7D858F">OPEN SOURCE PROJECT</text>
<line x1="54" y1="250" x2="486" y2="250" stroke="#D6D2C8"/>
<g transform="translate(154 330) scale(1.04)"><path d="M24 48 L101 48 C135 76 135 180 101 208 L24 208 Z" fill="#070A0D"/><path d="M232 48 L155 48 C121 76 121 180 155 208 L232 208 Z" fill="#070A0D"/></g>
<text x="54" y="735" class="sans" font-size="86" font-weight="400" letter-spacing="-0.05em" fill="#070A0D">Morpheus</text>
<line x1="54" y1="806" x2="486" y2="806" stroke="#D6D2C8"/>
<text x="54" y="865" class="sans" font-size="24" fill="#0B1016" opacity="0.78">Morpheus is control plane for</text>
<text x="54" y="902" class="sans" font-size="24" fill="#0B1016" opacity="0.78">AI operator workflows.</text>
<text x="54" y="965" class="sans" font-size="24" fill="#0B1016" opacity="0.78">You define intent.</text>
<text x="54" y="1002" class="sans" font-size="24" fill="#0B1016" opacity="0.78">Morpheus runs work.</text>
<text x="54" y="1039" class="sans" font-size="24" fill="#0B1016" opacity="0.78">You review evidence.</text>
<text x="54" y="1076" class="sans" font-size="24" fill="#0B1016" opacity="0.78">You decide what becomes real.</text>
<rect x="54" y="1180" width="432" height="72" rx="10" fill="none" stroke="#D6D2C8"/>
<circle cx="104" cy="1216" r="22" fill="#070A0D" opacity="0.95"/>
<text x="150" y="1208" class="mono" font-size="18" letter-spacing="0.15em" fill="#0B1016">OPEN SOURCE</text>
<text x="150" y="1234" class="mono" font-size="15" fill="#7D858F">github.com/NickSuomi/morpheus</text>
<g transform="translate(640 0)">
<text x="0" y="255" class="sans" font-size="70" font-weight="520" letter-spacing="-0.035em" fill="#F4F7FA">From intent to impact.</text>
<text x="0" y="330" class="sans" font-size="70" font-weight="400" letter-spacing="-0.035em" fill="#A9B1BB">Under human authority.</text>
<line x1="0" y1="416" x2="1130" y2="416" stroke="#242A31"/>
<text x="0" y="458" class="mono" font-size="18" letter-spacing="0.18em" fill="#A9B1BB">A CONTROLLED WORKFLOW FOR AI OPERATORS</text>
<g transform="translate(0 0)"><circle cx="97.1" cy="632.0" r="0.69" fill="#FFFFFF" opacity="0.46"/><circle cx="109.7" cy="639.2" r="0.70" fill="#FFFFFF" opacity="0.44"/><circle cx="11.2" cy="598.1" r="0.58" fill="#FFFFFF" opacity="0.40"/><circle cx="248.1" cy="611.8" r="0.98" fill="#FFFFFF" opacity="0.29"/><circle cx="188.2" cy="631.5" r="1.18" fill="#FFFFFF" opacity="0.71"/><circle cx="14.0" cy="595.7" r="1.15" fill="#FFFFFF" opacity="0.32"/><circle cx="43.3" cy="629.7" r="1.21" fill="#FFFFFF" opacity="0.26"/><circle cx="174.5" cy="620.8" r="1.40" fill="#FFFFFF" opacity="0.37"/><circle cx="164.3" cy="616.3" r="0.93" fill="#FFFFFF" opacity="0.54"/><circle cx="128.3" cy="613.1" r="0.97" fill="#FFFFFF" opacity="0.49"/><circle cx="136.0" cy="597.8" r="1.36" fill="#FFFFFF" opacity="0.30"/><circle cx="172.3" cy="641.8" r="1.28" fill="#FFFFFF" opacity="0.65"/><circle cx="218.8" cy="600.5" r="0.93" fill="#FFFFFF" opacity="0.39"/><circle cx="227.1" cy="647.0" r="0.98" fill="#FFFFFF" opacity="0.43"/><circle cx="11.8" cy="581.5" r="0.93" fill="#FFFFFF" opacity="0.65"/><circle cx="94.1" cy="571.1" r="1.25" fill="#FFFFFF" opacity="0.49"/><circle cx="174.0" cy="575.6" r="1.73" fill="#FFFFFF" opacity="0.43"/><circle cx="199.2" cy="618.4" r="0.83" fill="#FFFFFF" opacity="0.55"/><circle cx="194.1" cy="641.1" r="1.07" fill="#FFFFFF" opacity="0.38"/><circle cx="200.6" cy="608.7" r="0.79" fill="#FFFFFF" opacity="0.42"/><circle cx="50.4" cy="617.9" r="1.19" fill="#FFFFFF" opacity="0.23"/><circle cx="74.3" cy="616.6" r="0.93" fill="#FFFFFF" opacity="0.65"/><circle cx="24.2" cy="570.6" r="1.20" fill="#FFFFFF" opacity="0.62"/><circle cx="259.2" cy="614.2" r="1.18" fill="#FFFFFF" opacity="0.39"/><circle cx="107.6" cy="656.9" r="0.78" fill="#FFFFFF" opacity="0.26"/><circle cx="69.6" cy="562.2" r="0.79" fill="#FFFFFF" opacity="0.43"/><circle cx="176.7" cy="609.9" r="1.18" fill="#FFFFFF" opacity="0.37"/><circle cx="169.9" cy="611.7" r="1.72" fill="#FFFFFF" opacity="0.55"/><circle cx="154.6" cy="587.3" r="0.76" fill="#FFFFFF" opacity="0.66"/><circle cx="234.0" cy="596.9" r="1.84" fill="#FFFFFF" opacity="0.61"/><circle cx="117.7" cy="601.0" r="1.25" fill="#FFFFFF" opacity="0.19"/><circle cx="20.2" cy="619.2" r="0.68" fill="#FFFFFF" opacity="0.25"/><circle cx="102.0" cy="610.5" r="0.77" fill="#FFFFFF" opacity="0.22"/><circle cx="109.1" cy="610.2" r="0.67" fill="#FFFFFF" opacity="0.65"/><circle cx="184.2" cy="618.0" r="1.12" fill="#FFFFFF" opacity="0.36"/><circle cx="36.9" cy="629.4" r="1.21" fill="#FFFFFF" opacity="0.72"/><circle cx="139.8" cy="600.8" r="0.78" fill="#FFFFFF" opacity="0.35"/><circle cx="79.4" cy="611.2" r="1.32" fill="#FFFFFF" opacity="0.25"/><circle cx="6.9" cy="650.3" r="0.61" fill="#FFFFFF" opacity="0.46"/><circle cx="8.1" cy="597.2" r="0.89" fill="#FFFFFF" opacity="0.71"/><circle cx="259.0" cy="607.3" r="1.29" fill="#FFFFFF" opacity="0.25"/><circle cx="231.6" cy="600.3" r="1.43" fill="#FFFFFF" opacity="0.60"/><circle cx="98.9" cy="617.9" r="1.52" fill="#FFFFFF" opacity="0.64"/><circle cx="241.8" cy="632.0" r="1.79" fill="#FFFFFF" opacity="0.57"/><circle cx="68.0" cy="583.2" r="0.61" fill="#FFFFFF" opacity="0.18"/><circle cx="83.8" cy="607.2" r="0.84" fill="#FFFFFF" opacity="0.55"/><circle cx="287.0" cy="592.4" r="2.14" fill="#FFFFFF" opacity="0.69"/><circle cx="109.4" cy="629.0" r="0.85" fill="#FFFFFF" opacity="0.29"/><circle cx="59.0" cy="621.7" r="1.32" fill="#FFFFFF" opacity="0.63"/><circle cx="143.8" cy="638.9" r="1.34" fill="#FFFFFF" opacity="0.61"/><circle cx="25.4" cy="571.7" r="1.13" fill="#FFFFFF" opacity="0.58"/><circle cx="143.4" cy="570.0" r="0.87" fill="#FFFFFF" opacity="0.60"/><circle cx="99.8" cy="631.5" r="0.99" fill="#FFFFFF" opacity="0.38"/><circle cx="284.0" cy="589.3" r="1.80" fill="#FFFFFF" opacity="0.26"/><circle cx="38.1" cy="649.8" r="1.18" fill="#FFFFFF" opacity="0.24"/><circle cx="248.0" cy="630.5" r="2.00" fill="#FFFFFF" opacity="0.53"/><circle cx="105.1" cy="597.3" r="0.65" fill="#FFFFFF" opacity="0.70"/><circle cx="194.9" cy="607.3" r="1.33" fill="#FFFFFF" opacity="0.68"/><circle cx="130.1" cy="639.6" r="0.88" fill="#FFFFFF" opacity="0.30"/><circle cx="87.9" cy="573.8" r="0.83" fill="#FFFFFF" opacity="0.49"/><circle cx="77.8" cy="597.1" r="1.39" fill="#FFFFFF" opacity="0.36"/><circle cx="137.4" cy="615.7" r="1.25" fill="#FFFFFF" opacity="0.67"/><circle cx="126.2" cy="633.8" r="1.18" fill="#FFFFFF" opacity="0.45"/><circle cx="5.6" cy="589.8" r="0.82" fill="#FFFFFF" opacity="0.26"/><circle cx="1.2" cy="616.6" r="0.84" fill="#FFFFFF" opacity="0.57"/><circle cx="166.9" cy="598.7" r="1.06" fill="#FFFFFF" opacity="0.45"/><circle cx="166.6" cy="612.0" r="1.30" fill="#FFFFFF" opacity="0.30"/><circle cx="83.1" cy="597.4" r="1.28" fill="#FFFFFF" opacity="0.44"/><circle cx="168.5" cy="612.7" r="1.19" fill="#FFFFFF" opacity="0.50"/><circle cx="151.7" cy="564.3" r="1.22" fill="#FFFFFF" opacity="0.55"/><circle cx="135.7" cy="585.1" r="1.60" fill="#FFFFFF" opacity="0.55"/><circle cx="263.0" cy="607.6" r="2.01" fill="#FFFFFF" opacity="0.31"/><circle cx="167.9" cy="644.5" r="0.86" fill="#FFFFFF" opacity="0.23"/><circle cx="132.6" cy="594.9" r="0.74" fill="#FFFFFF" opacity="0.29"/><circle cx="21.9" cy="581.9" r="1.20" fill="#FFFFFF" opacity="0.25"/><circle cx="214.8" cy="587.4" r="1.53" fill="#FFFFFF" opacity="0.24"/><circle cx="264.8" cy="616.9" r="2.03" fill="#FFFFFF" opacity="0.38"/><circle cx="146.2" cy="607.0" r="1.68" fill="#FFFFFF" opacity="0.63"/><circle cx="48.4" cy="576.5" r="0.83" fill="#FFFFFF" opacity="0.27"/><circle cx="95.6" cy="623.1" r="1.27" fill="#FFFFFF" opacity="0.17"/><circle cx="166.2" cy="606.6" r="1.06" fill="#FFFFFF" opacity="0.51"/><circle cx="153.7" cy="611.4" r="0.77" fill="#FFFFFF" opacity="0.71"/><circle cx="236.5" cy="615.9" r="1.13" fill="#FFFFFF" opacity="0.18"/><circle cx="233.7" cy="608.9" r="1.13" fill="#FFFFFF" opacity="0.23"/><circle cx="126.7" cy="646.3" r="0.91" fill="#FFFFFF" opacity="0.24"/><circle cx="275.8" cy="601.2" r="1.58" fill="#FFFFFF" opacity="0.55"/><circle cx="26.8" cy="656.6" r="0.86" fill="#FFFFFF" opacity="0.20"/><circle cx="281.5" cy="614.5" r="1.68" fill="#FFFFFF" opacity="0.61"/><circle cx="25.1" cy="617.5" r="1.19" fill="#FFFFFF" opacity="0.41"/><circle cx="101.7" cy="602.6" r="1.14" fill="#FFFFFF" opacity="0.68"/><circle cx="80.4" cy="633.2" r="0.81" fill="#FFFFFF" opacity="0.22"/><circle cx="48.4" cy="637.1" r="0.60" fill="#FFFFFF" opacity="0.27"/><circle cx="93.6" cy="595.0" r="0.88" fill="#FFFFFF" opacity="0.44"/><circle cx="53.4" cy="657.8" r="0.85" fill="#FFFFFF" opacity="0.17"/><circle cx="75.1" cy="655.4" r="1.07" fill="#FFFFFF" opacity="0.27"/><circle cx="142.4" cy="613.4" r="1.62" fill="#FFFFFF" opacity="0.22"/><circle cx="245.7" cy="597.4" r="1.82" fill="#FFFFFF" opacity="0.38"/><circle cx="152.0" cy="620.0" r="1.40" fill="#FFFFFF" opacity="0.71"/><circle cx="102.8" cy="629.7" r="1.22" fill="#FFFFFF" opacity="0.39"/><circle cx="104.3" cy="575.6" r="0.69" fill="#FFFFFF" opacity="0.23"/><circle cx="21.2" cy="608.5" r="0.65" fill="#FFFFFF" opacity="0.21"/><circle cx="252.4" cy="601.4" r="1.89" fill="#FFFFFF" opacity="0.54"/><circle cx="84.6" cy="611.1" r="1.01" fill="#FFFFFF" opacity="0.25"/><circle cx="133.7" cy="628.7" r="0.93" fill="#FFFFFF" opacity="0.70"/><circle cx="291.8" cy="604.7" r="2.13" fill="#FFFFFF" opacity="0.33"/><circle cx="107.0" cy="604.5" r="0.64" fill="#FFFFFF" opacity="0.37"/><circle cx="142.4" cy="595.5" r="1.19" fill="#FFFFFF" opacity="0.16"/><circle cx="79.3" cy="609.7" r="0.68" fill="#FFFFFF" opacity="0.38"/><circle cx="12.5" cy="638.7" r="0.68" fill="#FFFFFF" opacity="0.49"/><circle cx="158.8" cy="612.4" r="1.48" fill="#FFFFFF" opacity="0.53"/><circle cx="214.8" cy="620.6" r="1.15" fill="#FFFFFF" opacity="0.71"/><circle cx="44.8" cy="588.8" r="1.14" fill="#FFFFFF" opacity="0.52"/><circle cx="13.1" cy="646.6" r="0.98" fill="#FFFFFF" opacity="0.57"/><circle cx="243.7" cy="588.2" r="0.99" fill="#FFFFFF" opacity="0.45"/><circle cx="151.3" cy="629.1" r="1.53" fill="#FFFFFF" opacity="0.49"/><circle cx="267.8" cy="594.9" r="1.70" fill="#FFFFFF" opacity="0.55"/><circle cx="69.0" cy="625.0" r="0.89" fill="#FFFFFF" opacity="0.22"/><circle cx="250.7" cy="611.2" r="1.51" fill="#FFFFFF" opacity="0.51"/><circle cx="187.9" cy="601.5" r="0.75" fill="#FFFFFF" opacity="0.61"/><circle cx="224.5" cy="595.4" r="1.38" fill="#FFFFFF" opacity="0.46"/><circle cx="197.8" cy="634.5" r="1.04" fill="#FFFFFF" opacity="0.20"/><circle cx="79.7" cy="628.2" r="1.24" fill="#FFFFFF" opacity="0.27"/><circle cx="221.9" cy="626.3" r="1.23" fill="#FFFFFF" opacity="0.43"/><circle cx="205.1" cy="607.2" r="1.63" fill="#FFFFFF" opacity="0.51"/><circle cx="192.8" cy="618.4" r="1.03" fill="#FFFFFF" opacity="0.58"/><circle cx="91.3" cy="617.0" r="1.13" fill="#FFFFFF" opacity="0.17"/><circle cx="18.2" cy="604.1" r="1.04" fill="#FFFFFF" opacity="0.54"/><circle cx="87.3" cy="649.9" r="1.07" fill="#FFFFFF" opacity="0.42"/><circle cx="139.9" cy="644.1" r="0.88" fill="#FFFFFF" opacity="0.71"/><circle cx="280.9" cy="622.2" r="0.90" fill="#FFFFFF" opacity="0.42"/><circle cx="246.0" cy="622.6" r="1.15" fill="#FFFFFF" opacity="0.28"/><circle cx="283.7" cy="608.2" r="1.15" fill="#FFFFFF" opacity="0.49"/><circle cx="42.5" cy="533.9" r="0.66" fill="#FFFFFF" opacity="0.62"/><circle cx="152.6" cy="602.3" r="1.60" fill="#FFFFFF" opacity="0.55"/><circle cx="69.4" cy="636.4" r="0.61" fill="#FFFFFF" opacity="0.16"/><circle cx="147.5" cy="595.4" r="1.15" fill="#FFFFFF" opacity="0.33"/><circle cx="42.2" cy="594.9" r="1.22" fill="#FFFFFF" opacity="0.16"/><circle cx="225.2" cy="620.0" r="1.77" fill="#FFFFFF" opacity="0.23"/><circle cx="277.9" cy="605.7" r="1.23" fill="#FFFFFF" opacity="0.37"/><circle cx="117.9" cy="559.8" r="1.60" fill="#FFFFFF" opacity="0.49"/><circle cx="108.2" cy="592.0" r="0.69" fill="#FFFFFF" opacity="0.22"/><circle cx="250.4" cy="614.0" r="1.18" fill="#FFFFFF" opacity="0.68"/><circle cx="74.8" cy="606.7" r="0.76" fill="#FFFFFF" opacity="0.37"/><circle cx="286.8" cy="619.4" r="2.01" fill="#FFFFFF" opacity="0.61"/><circle cx="189.3" cy="645.0" r="1.35" fill="#FFFFFF" opacity="0.56"/><circle cx="14.8" cy="568.5" r="1.06" fill="#FFFFFF" opacity="0.41"/><circle cx="225.8" cy="603.1" r="0.86" fill="#FFFFFF" opacity="0.68"/><circle cx="38.2" cy="589.6" r="0.92" fill="#FFFFFF" opacity="0.35"/><circle cx="89.3" cy="605.0" r="0.85" fill="#FFFFFF" opacity="0.53"/><circle cx="90.3" cy="537.4" r="1.11" fill="#FFFFFF" opacity="0.38"/><circle cx="50.2" cy="620.9" r="1.30" fill="#FFFFFF" opacity="0.44"/><circle cx="66.0" cy="626.8" r="1.35" fill="#FFFFFF" opacity="0.72"/><circle cx="135.0" cy="619.3" r="0.77" fill="#FFFFFF" opacity="0.35"/><circle cx="27.3" cy="626.4" r="0.72" fill="#FFFFFF" opacity="0.30"/><circle cx="170.9" cy="633.9" r="1.16" fill="#FFFFFF" opacity="0.39"/><circle cx="157.3" cy="588.1" r="1.09" fill="#FFFFFF" opacity="0.35"/><circle cx="18.6" cy="594.9" r="0.61" fill="#FFFFFF" opacity="0.44"/><circle cx="188.9" cy="654.5" r="1.68" fill="#FFFFFF" opacity="0.28"/><circle cx="81.3" cy="610.3" r="0.99" fill="#FFFFFF" opacity="0.69"/><circle cx="254.6" cy="621.1" r="1.90" fill="#FFFFFF" opacity="0.17"/><path d="M 300 597.2 C 380 597.2, 420 610, 485 610" fill="none" stroke="#E7EDF4" stroke-opacity="0.45" stroke-width="1.2"/><path d="M 560 610 C 635 610, 700 535, 815 535" fill="none" stroke="#6AA7FF" stroke-opacity="0.7" stroke-width="1.4"/><circle cx="815" cy="535" r="3" fill="#6AA7FF"/><path d="M 300 601.5 C 380 601.5, 420 610, 485 610" fill="none" stroke="#E7EDF4" stroke-opacity="0.45" stroke-width="1.2"/><path d="M 560 610 C 635 610, 700 560, 815 560" fill="none" stroke="#6AA7FF" stroke-opacity="0.7" stroke-width="1.4"/><circle cx="815" cy="560" r="3" fill="#6AA7FF"/><path d="M 300 605.8 C 380 605.8, 420 610, 485 610" fill="none" stroke="#E7EDF4" stroke-opacity="0.45" stroke-width="1.2"/><path d="M 560 610 C 635 610, 700 585, 815 585" fill="none" stroke="#6AA7FF" stroke-opacity="0.7" stroke-width="1.4"/><circle cx="815" cy="585" r="3" fill="#6AA7FF"/><path d="M 300 610.0 C 380 610.0, 420 610, 485 610" fill="none" stroke="#E7EDF4" stroke-opacity="0.45" stroke-width="1.2"/><path d="M 560 610 C 635 610, 700 610, 815 610" fill="none" stroke="#6AA7FF" stroke-opacity="0.7" stroke-width="1.4"/><circle cx="815" cy="610" r="3" fill="#6AA7FF"/><path d="M 300 614.2 C 380 614.2, 420 610, 485 610" fill="none" stroke="#E7EDF4" stroke-opacity="0.45" stroke-width="1.2"/><path d="M 560 610 C 635 610, 700 635, 815 635" fill="none" stroke="#6AA7FF" stroke-opacity="0.7" stroke-width="1.4"/><circle cx="815" cy="635" r="3" fill="#6AA7FF"/><path d="M 300 618.5 C 380 618.5, 420 610, 485 610" fill="none" stroke="#E7EDF4" stroke-opacity="0.45" stroke-width="1.2"/><path d="M 560 610 C 635 610, 700 660, 815 660" fill="none" stroke="#6AA7FF" stroke-opacity="0.7" stroke-width="1.4"/><circle cx="815" cy="660" r="3" fill="#6AA7FF"/><path d="M 300 622.8 C 380 622.8, 420 610, 485 610" fill="none" stroke="#E7EDF4" stroke-opacity="0.45" stroke-width="1.2"/><path d="M 560 610 C 635 610, 700 685, 815 685" fill="none" stroke="#6AA7FF" stroke-opacity="0.7" stroke-width="1.4"/><circle cx="815" cy="685" r="3" fill="#6AA7FF"/><line x1="523" y1="510" x2="523" y2="710" stroke="#D8DEE6" stroke-opacity="0.30"/><g transform="translate(395 482)"><path d="M24 48 L101 48 C135 76 135 180 101 208 L24 208 Z" fill="#FFFFFF"/><path d="M232 48 L155 48 C121 76 121 180 155 208 L232 208 Z" fill="#FFFFFF"/></g></g>
<g transform="translate(870 520)"><rect x="0" y="0" width="150" height="92" fill="none" stroke="#8390A0"/><path d="M20 25H78M20 45H70M20 65H92" stroke="#6AA7FF"/><path d="M103 66L120 45L136 55" fill="none" stroke="#6AA7FF"/></g>
<g transform="translate(1080 490) scale(0.78)"><path d="M24 48 L101 48 C135 76 135 180 101 208 L24 208 Z" fill="none" stroke="#F4F7FA" stroke-width="2.5"/><path d="M232 48 L155 48 C121 76 121 180 155 208 L232 208 Z" fill="none" stroke="#F4F7FA" stroke-width="2.5"/></g>
<circle cx="1238" cy="662" r="26" fill="#6AA7FF"/><path d="M1227 660 l8 8 l18 -22" fill="none" stroke="#FFFFFF" stroke-width="4" stroke-linecap="round"/>
<text x="20" y="750" class="mono" font-size="18" letter-spacing="0.13em" fill="#A9B1BB">01</text><text x="20" y="785" class="mono" font-size="27" letter-spacing="0.20em" fill="#F4F7FA">DREAM</text><text x="20" y="832" class="sans" font-size="22" fill="#A9B1BB">Explore possibilities</text><text x="20" y="864" class="sans" font-size="22" fill="#A9B1BB">and generate options.</text>
<text x="255" y="750" class="mono" font-size="18" letter-spacing="0.13em" fill="#A9B1BB">02</text><text x="255" y="785" class="mono" font-size="27" letter-spacing="0.20em" fill="#F4F7FA">INTENT</text><text x="255" y="832" class="sans" font-size="22" fill="#A9B1BB">Define goal and</text><text x="255" y="864" class="sans" font-size="22" fill="#A9B1BB">set constraints.</text>
<text x="490" y="750" class="mono" font-size="18" letter-spacing="0.13em" fill="#A9B1BB">03</text><text x="490" y="785" class="mono" font-size="27" letter-spacing="0.20em" fill="#F4F7FA">EVIDENCE</text><text x="490" y="832" class="sans" font-size="22" fill="#A9B1BB">Sandbox executes.</text><text x="490" y="864" class="sans" font-size="22" fill="#A9B1BB">Evidence is collected.</text>
<text x="770" y="750" class="mono" font-size="18" letter-spacing="0.13em" fill="#A9B1BB">04</text><text x="770" y="785" class="mono" font-size="27" letter-spacing="0.20em" fill="#F4F7FA">REVIEW</text><text x="770" y="832" class="sans" font-size="22" fill="#A9B1BB">Inspect transcripts,</text><text x="770" y="864" class="sans" font-size="22" fill="#A9B1BB">logs, and artifacts.</text>
<text x="1040" y="750" class="mono" font-size="18" letter-spacing="0.13em" fill="#A9B1BB">05</text><text x="1040" y="785" class="mono" font-size="27" letter-spacing="0.20em" fill="#F4F7FA">MERGE</text><text x="1040" y="832" class="sans" font-size="22" fill="#A9B1BB">Human authority.</text><text x="1040" y="864" class="sans" font-size="22" fill="#A9B1BB">You decide what ships.</text>
<line x1="0" y1="960" x2="1130" y2="960" stroke="#242A31"/>
<text x="0" y="998" class="mono" font-size="19" letter-spacing="0.18em" fill="#A9B1BB">BUILT ON SIX OPERATOR PRINCIPLES</text>

<g color="#F4F7FA" transform="translate(70 1070)"><use href="#i-target"/></g>
<text x="70" y="1148" text-anchor="middle" class="mono" font-size="21" letter-spacing="0.16em" fill="#F4F7FA">EXPLICIT</text>
<text x="70" y="1181" text-anchor="middle" class="mono" font-size="21" letter-spacing="0.16em" fill="#F4F7FA">INTENT</text>
<text x="70" y="1220" text-anchor="middle" class="sans" font-size="18" fill="#A9B1BB">Goals declared.</text>
<text x="70" y="1246" text-anchor="middle" class="sans" font-size="18" fill="#A9B1BB">Constraints enforced.</text>
<g color="#F4F7FA" transform="translate(275 1070)"><use href="#i-db"/></g>
<text x="275" y="1148" text-anchor="middle" class="mono" font-size="21" letter-spacing="0.16em" fill="#F4F7FA">DURABLE</text>
<text x="275" y="1181" text-anchor="middle" class="mono" font-size="21" letter-spacing="0.16em" fill="#F4F7FA">STATE</text>
<text x="275" y="1220" text-anchor="middle" class="sans" font-size="18" fill="#A9B1BB">Versioned state.</text>
<text x="275" y="1246" text-anchor="middle" class="sans" font-size="18" fill="#A9B1BB">Recoverable runs.</text>
<g color="#F4F7FA" transform="translate(480 1070)"><use href="#i-box"/></g>
<text x="480" y="1148" text-anchor="middle" class="mono" font-size="21" letter-spacing="0.16em" fill="#F4F7FA">SANDBOXED</text>
<text x="480" y="1181" text-anchor="middle" class="mono" font-size="21" letter-spacing="0.16em" fill="#F4F7FA">EXECUTION</text>
<text x="480" y="1220" text-anchor="middle" class="sans" font-size="18" fill="#A9B1BB">Isolated runs.</text>
<text x="480" y="1246" text-anchor="middle" class="sans" font-size="18" fill="#A9B1BB">No hidden effects.</text>
<g color="#F4F7FA" transform="translate(685 1070)"><use href="#i-log"/></g>
<text x="685" y="1148" text-anchor="middle" class="mono" font-size="21" letter-spacing="0.16em" fill="#F4F7FA">TRANSCRIPTS</text>
<text x="685" y="1181" text-anchor="middle" class="mono" font-size="21" letter-spacing="0.16em" fill="#F4F7FA">&amp; LOGS</text>
<text x="685" y="1220" text-anchor="middle" class="sans" font-size="18" fill="#A9B1BB">Complete record</text>
<text x="685" y="1246" text-anchor="middle" class="sans" font-size="18" fill="#A9B1BB">of every run.</text>
<g color="#F4F7FA" transform="translate(890 1070)"><use href="#i-doc"/></g>
<text x="890" y="1148" text-anchor="middle" class="mono" font-size="21" letter-spacing="0.16em" fill="#F4F7FA">REVIEW</text>
<text x="890" y="1181" text-anchor="middle" class="mono" font-size="21" letter-spacing="0.16em" fill="#F4F7FA">ARTIFACTS</text>
<text x="890" y="1220" text-anchor="middle" class="sans" font-size="18" fill="#A9B1BB">Diffs, outputs, evidence</text>
<text x="890" y="1246" text-anchor="middle" class="sans" font-size="18" fill="#A9B1BB">for decisions.</text>
<g color="#F4F7FA" transform="translate(1095 1070)"><use href="#i-lock"/></g>
<text x="1095" y="1148" text-anchor="middle" class="mono" font-size="21" letter-spacing="0.16em" fill="#F4F7FA">HUMAN MERGE</text>
<text x="1095" y="1181" text-anchor="middle" class="mono" font-size="21" letter-spacing="0.16em" fill="#F4F7FA">AUTHORITY</text>
<text x="1095" y="1220" text-anchor="middle" class="sans" font-size="18" fill="#A9B1BB">Operators decide</text>
<text x="1095" y="1246" text-anchor="middle" class="sans" font-size="18" fill="#A9B1BB">what ships.</text>
</g>
<rect x="0" y="1280" width="1920" height="160" fill="#081018"/>
<text x="54" y="1338" class="mono" font-size="19" letter-spacing="0.18em" fill="#A9B1BB">OPEN SOURCE</text>
<text x="1110" y="1342" class="mono" font-size="18" letter-spacing="0.20em" fill="#A9B1BB">MORPHEUS IS AN OPEN SOURCE PROJECT BUILT FOR OPERATORS.</text>
</svg>